<?xml version="1.0" encoding="UTF-8" standalone="no"?>
<!-- Created with Inkscape (http://www.inkscape.org/) -->

<svg
   width="6.7666202in"
   height="6.6875448in"
   viewBox="0 0 6.7666201 6.6875447"
   version="1.1"
   id="SVGRoot"
   xmlns="http://www.w3.org/2000/svg"
   xmlns:svg="http://www.w3.org/2000/svg">
  <defs
     id="defs16" />
  <g
     id="layer4"
     transform="translate(0.57190307,0.14751172)">
    <path
       id="rect2080"
       style="fill:none;stroke:#000000;stroke-width:0.0120574"
       transform="matrix(-0.71124806,0.70294111,-0.71124806,-0.70294111,0,0)"
       d="m -2.7160933,-3.0639108 -0.5301209,0.015291 0,-2.4027524 7.0865984,0 0,2.4027524 -0.4638199,-0.017332 m -0.2835372,-1.9188662 -0.00362,0.00106 c -0.930455,0.4684992 -1.8134669,0.9301055 -2.79230401,0.9350215 -0.99299122,0.00499 -1.83517449,-0.4494427 -2.77399879,-0.9154385 m 5.8552603,0.2164504 c -0.00453,0.7707994 9.728e-4,1.6873885 9.728e-4,1.6873885 m -0.00157,-1.6776303 1.588e-4,-0.00296 c -0.00101,-0.05969 -0.021861,-0.1275517 -0.066976,-0.1726663 -0.060351,-0.060351 -0.1428538,-0.088164 -0.2211462,-0.069621 l -9.071e-4,5.3e-5 c 0.08304,-0.021871 0.15772,0.00497 0.2221852,0.069436 0.049593,0.049593 0.06821,0.1102845 0.066689,0.1757581 z m -5.8554976,-0.2254932 0.00361,0.00102 c 0.9250148,0.4576004 1.79176206,0.9197671 2.77060966,0.9131844 C 1.28949,-4.0559336 2.1474562,-4.5091241 3.0918199,-4.9861819 m -5.8576917,0.263186 c -0.00453,0.7707988 0.051145,1.663183 0.051145,1.663183 m -0.050663,-1.6534312 -1.24e-4,-0.00296 c 0.00171,-0.059706 0.023361,-0.1278172 0.069009,-0.1734649 0.061064,-0.061064 0.1438993,-0.089848 0.2219792,-0.072224 l 9.066e-4,4.24e-5 c -0.082788,-0.020897 -0.1577892,0.00682 -0.2230161,0.072051 -0.050179,0.050179 -0.06951,0.1110933 -0.068759,0.1765535 z" />
  </g>
</svg>
